<svg version="1" xmlns="http://www.w3.org/2000/svg" width="454.667" height="454.667" viewBox="0 0 341.000000 341.000000"><path d="M149 1C74.8 11.2 16 67.1 2.4 140.5c-2.9 15.2-2.6 48.1.5 62.5 13.3 62.4 55.6 110.2 114.6 129.5 20 6.6 29.5 8 53 8s33-1.4 53-8c59-19.3 101.2-66.9 114.7-129.5 1.9-9.1 2.2-13.4 2.2-32.5s-.3-23.4-2.2-32.5c-15-69.7-65.5-120.3-134.7-135-11.3-2.4-43-3.6-54.5-2zm46.7 5.6c60.3 8.9 112.5 52.7 131.8 110.8 6.6 19.7 7.9 28.6 8 52.6 0 18.8-.3 22.9-2.3 32.4-12.7 59-54.2 106.1-110.1 124.6-42.8 14.2-86.4 11.1-126.6-9-50.1-25.1-84.4-74.5-90.4-130.2C-3.4 100.4 58.3 20.2 145.5 6.5c11.5-1.9 37.7-1.8 50.2.1z"/><path d="M124.3 43.2c-1.7.6-4.6 2.3-6.4 3.7-3.2 2.7-3.2 2.8-2.1 7.4 3 11.6.6 35.1-6.3 62.5-11.6 46.2-28.5 78-45.3 85.4-3.8 1.7-5.8 2-11.8 1.5-6.2-.6-7.3-.4-7.9 1-1.5 4.2 7.6 5.6 17.2 2.8 2.8-.8 7.8-3.5 11.1-5.9 13.7-10.1 24.1-29.1 35.8-65.6 2.4-7.4 4.9-14.4 5.7-15.4 3-4.1 3.7-.9 3.7 18 0 34.4 4.4 58.7 11.8 64.4 2.9 2.3 7.2 2.6 11 .6 9.2-4.8 27.3-32.2 42.2-64.1 7.2-15.3 8.5-17.9 10.4-19.4 1.4-1.2 1.6-1 1.6 1.2 0 1.3-2.9 14.1-6.4 28.3-12.1 48.8-15.5 72.1-17.7 119.2-1.2 27-.9 29.2 4.2 29.2 2.1 0 4-1 6-3l3-3-.7-10.7c-.6-9.9.9-35.3 2.1-37.4.3-.4 4.3 1.6 8.8 4.5 12.8 8.4 44.1 22 56.5 24.6 7.4 1.6 13.1-1.3 13.2-6.6 0-2.4-2.3-3.4-7.7-3.4-3.8 0-20.6-5.7-31.7-10.9-8.5-3.9-23.5-13.1-25.6-15.6-1.3-1.5-.8-2.3 33.4-46 20.6-26.3 33.6-45.4 33.6-49.4 0-1.7-3.3-2.2-5.4-.7-1.2.7-7.1 7.6-13.1 15.2-26.3 33.4-57.6 72.3-58.6 73-.9.5-1-.9-.5-5.2 1.2-9.7 11-62.2 19.5-104.4 8.3-41.5 9.7-50.6 8.3-55.5-.8-2.5-1.4-3-3.7-2.8-4.5.3-6.5 3.3-8.6 12.3-4.3 18.3-47.7 104.1-56.8 112.4-2.8 2.5-6.3 1.7-8.1-1.9-1.3-2.6-1.5-11.3-1.2-65.1.4-60.1 0-69.9-2.7-74.2-1.1-1.8-6.9-2.3-10.8-1z"/></svg>