<?xml version="1.0" standalone="no"?>
<!DOCTYPE svg PUBLIC "-//W3C//DTD SVG 20010904//EN"
 "http://www.w3.org/TR/2001/REC-SVG-20010904/DTD/svg10.dtd">
<svg version="1.0" xmlns="http://www.w3.org/2000/svg"
 width="440.000000pt" height="440.000000pt" viewBox="0 0 440.000000 440.000000"
 preserveAspectRatio="xMidYMid meet">
<metadata>
Created by potrace 1.14, written by Peter Selinger 2001-2017
</metadata>
<g transform="translate(0.000000,440.000000) scale(0.100000,-0.100000)"
fill="#000000" stroke="none">
<path d="M2058 4275 c-2 -1 -36 -5 -77 -9 -318 -27 -670 -153 -945 -339 -231
-155 -448 -378 -601 -617 -124 -193 -249 -503 -280 -695 -3 -16 -8 -43 -12
-60 -30 -149 -35 -473 -9 -645 2 -14 7 -45 10 -70 22 -147 105 -398 181 -550
63 -125 64 -128 147 -251 204 -303 480 -543 813 -704 166 -81 346 -143 485
-168 28 -5 79 -14 125 -22 60 -10 202 -19 305 -19 188 0 338 18 532 63 78 19
285 85 295 94 5 5 4 2699 -1 2704 -1 2 -42 4 -90 5 -102 3 -88 15 -178 -142
-153 -265 -552 -946 -559 -953 -5 -7 -175 266 -255 408 -6 11 -32 56 -59 100
-26 44 -55 94 -65 110 -9 17 -52 89 -95 160 -43 72 -84 139 -89 150 -49 90
-101 165 -115 166 -20 1 -153 1 -163 0 -5 -1 -8 -356 -8 -791 l0 -790 109 0
109 0 0 561 c0 308 2 562 4 564 2 2 129 -207 283 -464 l280 -466 54 0 54 0
129 214 c70 118 128 216 128 216 0 2 185 312 199 335 22 34 76 127 90 153 7
15 15 26 17 24 3 -3 6 -1783 4 -2058 l0 -46 -72 -21 c-145 -43 -270 -67 -398
-77 -78 -6 -258 -7 -300 -1 -19 3 -62 8 -95 12 -33 4 -62 8 -65 9 -5 1 -60 12
-95 19 -242 48 -524 182 -743 353 -375 293 -643 760 -697 1213 -4 30 -8 69
-10 85 -6 41 -6 304 -1 335 2 14 7 48 11 75 13 102 17 121 32 180 8 33 16 65
17 70 13 60 72 215 117 310 103 218 289 458 484 624 55 47 238 172 307 209
363 197 824 271 1213 197 270 -52 487 -140 710 -288 383 -253 669 -663 775
-1112 39 -165 50 -265 50 -450 -1 -128 -2 -150 -15 -270 -8 -69 -7 -63 -30
-173 -82 -404 -328 -788 -665 -1039 l-57 -43 -2 -121 c-1 -95 1 -119 11 -113
169 99 347 241 484 384 283 297 456 706 491 1160 15 202 5 431 -27 580 -5 25
-12 59 -15 75 -8 53 -62 227 -99 316 -165 409 -449 757 -810 994 -102 67 -251
147 -351 190 -100 42 -298 100 -410 119 -16 3 -41 8 -55 10 -66 13 -138 18
-282 21 -86 2 -158 2 -160 0z"/>
</g>
</svg>
